<svg xmlns="http://www.w3.org/2000/svg" xmlns:xlink="http://www.w3.org/1999/xlink" width="881.5" height="636.573" xmlns:v="https://vecta.io/nano"><path d="M226.919 371.46s1.85 36.996-77.075 82.625c0 0-.094.202 577.756 0 0 0-65.976-46.862-70.293-99.273" opacity=".2"/><path d="M654.864 345.011V34.13a17.35 17.35 0 0 0 12.998-16.791h0A17.34 17.34 0 0 0 650.522 0H234.38a17.34 17.34 0 0 0-17.339 17.339h0c0 9.576 7.763 17.339 17.339 17.339h.004l-9.634 310.608-77.35 98.998s-.65.002 577.756 0c0 0-.407 1.002-70.293-99.273z" fill="#e6e6e6"/><ellipse cx="458.101" cy="399.557" rx="127.406" ry="9.8" opacity=".2"/><path opacity=".2" d="M234.38 34.679l420.484 12.246.182-13-420.666.754z"/><path d="M538.191 143.705v38.222c-.002.735-.597 1.331-1.333 1.333h-.948v199.111a20.78 20.78 0 0 1-20.775 20.775H390.721a20.77 20.77 0 0 1-20.77-20.775V190.243h-.687a.94.94 0 0 1-.943-.937v-21.753c0-.25.099-.49.276-.667s.417-.276.667-.276h.687v-8.194h-.693c-.545-.002-.985-.445-.983-.989v-21.456c.001-.543.441-.982.983-.983h.693v-11.185h-.704a.87.87 0 0 1-.873-.873v-11.709c-.001-.483.389-.877.873-.879h.704V86.634c0-11.471 9.299-20.769 20.77-20.77h124.413a20.78 20.78 0 0 1 20.775 20.77v55.738h.948c.735.002 1.331.597 1.333 1.333z" fill="#3f3d56"/><g fill="#e6e8ec"><rect x="437.226" y="76.518" width="23.175" height="4.706" rx="1.479"/><circle cx="466.574" cy="78.871" r="2.669"/></g><path d="M525.961 90.743v293.351c-.003 7.277-5.904 13.175-13.181 13.175H393.686a13.16 13.16 0 0 1-13.181-13.175V90.743a13.18 13.18 0 0 1 13.181-13.181h17.825v2.287c0 5.994 4.859 10.853 10.853 10.853h60.569c5.994 0 10.853-4.859 10.853-10.853v-2.287h18.995c3.496-.001 6.849 1.387 9.322 3.859s3.861 5.825 3.859 9.322z" fill="#fff"/><path d="M392.954 270.684h121.044v15.712H392.954zm0 27.933h121.044v15.712H392.954zm0 27.934h121.044v15.712H392.954zm-.243-168.763h121.044v80.308H392.711z" fill="#e6e6e6"/><path d="M227.134 46.187l-62.074.386s-102.171 54.363-30.459 166.944c0 0 29.302-6.94 61.688 16.964 0 0 18.892-180.053 30.844-184.294z" fill="#266590"/><path d="M208.669 46.75c-11.121 46.454-23.693 166.266-23.693 166.266-28.935-21.357-55.389-18.095-60.703-17.157a205.63 205.63 0 0 0 10.328 18.106c0 0 29.302-6.94 61.688 16.964 0 0 18.892-180.053 30.844-184.294z" opacity=".2"/><path fill="#3f3d56" d="M134.216 104.405l-5.398 26.218-67.834-12.33-.023-.008-1.542-30.844h13.109l61.688 16.964z"/><path opacity=".2" d="M71.433 87.441l-10.449 30.852-.023-.008-1.542-30.844h12.014z"/><g fill="#3f3d56"><ellipse cx="131.903" cy="115.972" rx="7.711" ry="17.735"/><use xlink:href="#B"/><path d="M124.189 556.316a2.36 2.36 0 0 1-2.31-1.906L89.492 388.383c-.216-1.106.381-2.209 1.425-2.634s2.242-.052 2.859.89l85.592 130.557a2.36 2.36 0 0 1-.679 3.264 2.36 2.36 0 0 1-3.264-.679L96.417 399.266l30.088 154.242c.12.614-.009 1.25-.358 1.768s-.89.877-1.504.997a2.39 2.39 0 0 1-.454.043z"/><path d="M2.355 527.014c-.865-.001-1.661-.476-2.072-1.238s-.372-1.687.103-2.411L89.834 386.88c.714-1.086 2.173-1.388 3.261-.676s1.392 2.171.682 3.259L4.328 525.949c-.436.666-1.178 1.066-1.973 1.065z"/></g><path d="M654.366 46.187l62.074.386s102.171 54.363 30.459 166.944c0 0-29.302-6.94-61.688 16.964 0 0-18.892-180.053-30.844-184.294z" fill="#266590"/><path d="M672.831 46.75c11.121 46.454 23.693 166.266 23.693 166.266 28.935-21.357 55.389-18.095 60.703-17.157a205.63 205.63 0 0 1-10.328 18.106c0 0-29.302-6.94-61.688 16.964 0 0-18.892-180.053-30.844-184.294z" opacity=".2"/><path fill="#3f3d56" d="M747.284 104.405l5.398 26.218 67.834-12.33.023-.008 1.542-30.844h-13.108l-61.689 16.964z"/><path opacity=".2" d="M810.067 87.441l10.449 30.852.023-.008 1.542-30.844h-12.014z"/><g fill="#3f3d56"><ellipse cx="749.598" cy="115.972" rx="7.711" ry="17.735"/><use xlink:href="#B" x="697.89"/><path d="M757.312 556.316a2.38 2.38 0 0 1-.454-.043 2.36 2.36 0 0 1-1.863-2.765l30.087-154.243-79.009 120.516a2.36 2.36 0 0 1-3.264.679 2.36 2.36 0 0 1-.679-3.264l85.592-130.557a2.36 2.36 0 0 1 4.285 1.744l-32.386 166.028a2.36 2.36 0 0 1-2.311 1.906z"/><path d="M879.145 527.014c-.795.001-1.538-.4-1.973-1.065l-89.448-136.485c-.711-1.089-.405-2.547.682-3.259a2.36 2.36 0 0 1 3.261.676l89.448 136.485a2.36 2.36 0 0 1-1.969 3.649zM387.027 327.288l16.887-4.702s6.615-1.32 2.573-14.239-12.058-9.303-12.058-9.303l-14.981 4.352-5.914 1.827 8.322 11.675.698 7.782z"/><path d="M354.396 293.155l-5.298 21.164 27.147 26.31 2.334.585 6.226-1.749 5.299-21.163-5.367-5.644 5.486-1.437-11.707-11.365-6.109 1.282-4.9-4.865 3.307-1.322.312-1.245-4.006-3.153-12.724 2.602z"/></g><path fill="#266590" d="M379.831 323.006l-3.507 14.005-16.18-15.296 4.052-14.2 15.635 15.491z"/><path fill="none" stroke="#3f3d56" stroke-miterlimit="10" d="M354.396 293.155l-.743 2.968 26.995 26.261 2.334.584 6.032-1.632.332-.007.758-3.027-5.367-5.644 5.486-1.437-11.707-11.365-6.109 1.282-4.9-4.865 3.307-1.322.312-1.245-4.006-3.153-12.724 2.602z"/><g fill="#266590"><ellipse cx="526.116" cy="424.601" rx="1.524" ry="2.246" transform="matrix(.242879 -.970057 .970057 .242879 -172.80352 700.12301)"/><ellipse cx="543.266" cy="447.251" rx="1.524" ry="2.246" transform="matrix(.242879 -.970057 .970057 .242879 -181.79062 733.90811)"/></g><g fill="#ffb6b6"><path d="M398.247 353.652l-3.683-12.521s9.575-22.833-1.473-25.042-11.785 21.36-11.785 21.36l4.419 13.994z"/><circle cx="329.873" cy="300.049" r="29.257"/><path d="M339.338 320.701s1.721 21.513 6.024 23.234-46.468 13.768-46.468 13.768l12.908-14.629s2.582-22.373-3.442-27.536z"/></g><path d="M380.57 347.023l11.785-1.473s13.994 7.365 13.994 16.94 8.102 25.042 8.102 25.042 5.892 20.623-7.365 22.096-25.042-22.096-25.042-22.096z" fill="#266590"/><g fill="#2f2e41"><path d="M387.199 464.133s25.779-24.306 33.144-22.833 22.096 3.683 22.096 14.731-24.306 36.827-24.306 36.827-18.414 40.51-36.091 41.983a305.05 305.05 0 0 0-34.617 5.156c0 0 8.102 29.462 3.683 37.564s-21.36 17.677-22.833 16.94-22.096-19.887-30.935-47.139-14.731-47.875-6.629-49.348 96.487-33.881 96.487-33.881z"/><path d="M440.23 453.822s5.156-.737 4.419 11.785-2.946 57.45-6.629 66.289-4.419 19.15-2.946 22.833 4.419 9.575-.737 10.312-26.515-2.21-28.725-2.946-4.419-13.258-2.946-13.258 5.156-.737 3.683-5.892-2.21-5.156 0-6.629 8.102-3.683 6.629-5.156-2.946-36.091-2.946-36.091z"/><path d="M432.865 562.83s12.521-3.683 13.994 4.419c0 0 2.21 12.521-7.365 16.94a118.33 118.33 0 0 0-17.677 10.312s-15.467 5.892-16.204-1.473 2.946-33.881 2.946-33.881zm-83.229 8.839l-23.569-19.15s4.419 23.569-1.473 27.989l-2.692 7.869 7.537 6.165s23.143-3.723 20.197-22.873z"/><path d="M316.491 539.261s15.467 4.419 13.258 19.887l-5.043 32.272s-.85 41.383-11.898 44.329-13.994-2.946-13.994-2.946-12.559-32.338-8.838-41.983c4.503-11.675 10.992-24.784 8.838-28.725-2.119-3.878 1.473-25.042 17.677-22.833z"/></g><path d="M307.653 335.975s5.892.737 15.467 2.21 16.204-5.892 21.36-4.419 47.875 11.785 47.875 11.785l-6.629 50.821s8.102 58.923 6.629 69.235 17.677 8.838 6.629 21.36-30.198 23.569-69.235 19.887-44.192-2.946-44.192-8.838 8.839-55.977 5.892-60.396-8.838-9.575-5.892-14.731 5.892-8.102 1.473-12.521-6.629-8.838-6.629-11.048-10.312-38.3-10.312-38.3 4.419-17.677 9.575-18.414 9.575-4.419 13.258-4.419 5.892.737 8.102 0z" fill="#266590"/><g fill="#2f2e41"><path d="M378.284 289.787c-.379-1.702-2.234-7.394-6.005-8.783-2.759-1.016-7.893 1.131-10.45.775l-.33-.937a21.25 21.25 0 0 0-1.367-5.376c-2.73-6.968-8.18-12.524-15.095-15.387-8.422-3.521-21.743-6.432-33.3 2.793-15.875 12.671-13.077 31.632-11.924 36.893q.289 1.316.495 2.649c.711 4.634 2.762 5.187 2.762 5.187s-.044-.134-.116-.377l14.339 1.396 7.752-1.323c.13.758.18 1.206.18 1.206 22.621-3.458 35.786-15.373 37.923-17.439 1.879 1.246 5.379 3.28 8.774 3.727 4.971.654 6.743-3.302 6.364-5.004zm-58.287 11.392l-18.216-.663c-.258-4.972 1.026-10.787 8.348-11.083 7.06-.286 10.913 5.454 12.955 10.709z"/><ellipse cx="483.802" cy="389.174" rx="3.223" ry="1.219" transform="matrix(.985747 -.168234 .168234 .985747 -217.82668 -44.77484)"/></g><defs ><path id="B" d="M91.805 490.772c-.625 0-1.225-.248-1.667-.69s-.69-1.042-.69-1.667V115.972c0-.842.449-1.62 1.178-2.041s1.628-.421 2.357 0 1.178 1.199 1.178 2.041v372.443c0 .625-.248 1.225-.69 1.667s-1.042.69-1.667.69z"/></defs></svg>