<svg xmlns="http://www.w3.org/2000/svg" xmlns:xlink="http://www.w3.org/1999/xlink" width="645.131" height="529.537" xmlns:v="https://vecta.io/nano"><style><![CDATA[.B{fill:#2f2e41}.C{fill:#ffb6b6}.D{fill:#9e616a}.E{fill:#3f3d56}.F{fill:#e6e6e6}.G{fill:#266590}]]></style><path d="M86.927 501.654a3.61 3.61 0 0 1-3.499-2.216c-.585-1.401-.234-3.017.881-4.047l.248-.984q-.049-.118-.098-.236a9.7 9.7 0 0 0-8.971-5.92c-3.91.015-7.429 2.375-8.927 5.987-2.927 7.051-6.654 14.113-7.572 21.568a28.7 28.7 0 0 0 .504 9.872 115.08 115.08 0 0 1-10.469-47.799 111.08 111.08 0 0 1 .689-12.392q.571-5.06 1.584-10.047a116.42 116.42 0 0 1 23.087-49.342c5.561-3.034 10.058-7.7 12.886-13.369 1.024-2.038 1.748-4.213 2.149-6.458a29.36 29.36 0 0 1-1.892.175l-.596.031-.074.003a3.58 3.58 0 0 1-2.94-5.832q.406-.5.813-.999l1.244-1.532a1.78 1.78 0 0 0 .134-.154l1.419-1.748a10.35 10.35 0 0 0-3.394-3.28c-4.741-2.777-11.281-.854-14.706 3.435-3.435 4.288-4.083 10.304-2.89 15.662a41.5 41.5 0 0 0 5.738 12.793l-.782.977a117.17 117.17 0 0 0-12.23 19.375 48.71 48.71 0 0 0-2.908-22.624c-2.783-6.715-8.001-12.37-12.595-18.175-5.519-6.973-16.835-3.93-17.807 4.909q-.014.128-.028.257 1.024.577 2.004 1.226a4.9 4.9 0 0 1-1.976 8.919l-.1.015a48.83 48.83 0 0 0 1.285 7.291 50.21 50.21 0 0 0 25 31.468l1.193.607c-3.45 9.777-5.614 19.961-6.438 30.296a113.47 113.47 0 0 0 .082 18.315l-.031-.216c-1.316-6.775-4.931-12.889-10.232-17.308-7.874-6.469-18.999-8.85-27.494-14.05-1.843-1.184-4.206-1.189-6.055-.015s-2.848 3.316-2.56 5.487q.017.114.035.227c1.266.516 2.499 1.11 3.692 1.779q1.024.578 2.004 1.226a4.9 4.9 0 0 1-1.976 8.919l-.1.015-.206.031a48.81 48.81 0 0 0 8.978 14.058 50.25 50.25 0 0 0 36.446 15.991h.01a119.56 119.56 0 0 0 8.032 23.447H86.21c.103-.319.195-.648.288-.967a32.6 32.6 0 0 1-7.939-.473l6.386-7.857a1.97 1.97 0 0 0 .134-.154l3.25-4 .001-.002a47.75 47.75 0 0 0-1.399-12.164zm471.073 0a3.61 3.61 0 0 0 3.499-2.216c.585-1.401.234-3.017-.881-4.047l-.248-.984q.049-.118.098-.236a9.7 9.7 0 0 1 8.971-5.92c3.91.015 7.429 2.375 8.927 5.987 2.927 7.051 6.654 14.113 7.572 21.568a28.7 28.7 0 0 1-.504 9.872 115.08 115.08 0 0 0 10.469-47.799 111.08 111.08 0 0 0-.689-12.392q-.571-5.06-1.584-10.047a116.42 116.42 0 0 0-23.087-49.342c-5.561-3.034-10.058-7.7-12.886-13.369-1.024-2.038-1.748-4.213-2.149-6.458a29.36 29.36 0 0 0 1.892.175l.597.031.074.003a3.58 3.58 0 0 0 2.94-5.832q-.406-.5-.813-.999l-1.244-1.532a1.97 1.97 0 0 1-.134-.154l-1.419-1.748a10.35 10.35 0 0 1 3.394-3.28c4.741-2.777 11.281-.854 14.706 3.435 3.435 4.288 4.083 10.304 2.89 15.662a41.5 41.5 0 0 1-5.738 12.793l.782.977a117.17 117.17 0 0 1 12.23 19.375 48.71 48.71 0 0 1 2.908-22.624c2.783-6.715 8.001-12.37 12.595-18.175 5.519-6.973 16.835-3.93 17.807 4.909q.014.128.028.257-1.024.577-2.004 1.226a4.9 4.9 0 0 0 1.976 8.919l.1.015a48.83 48.83 0 0 1-1.285 7.291 50.21 50.21 0 0 1-25 31.468l-1.193.607a119.6 119.6 0 0 1 6.438 30.296 113.47 113.47 0 0 1-.082 18.315l.031-.216c1.316-6.775 4.931-12.889 10.232-17.308 7.874-6.469 18.999-8.851 27.494-14.05 1.843-1.184 4.206-1.189 6.055-.015s2.848 3.316 2.56 5.487q-.017.114-.035.227c-1.266.516-2.499 1.11-3.692 1.779q-1.024.578-2.004 1.226a4.9 4.9 0 0 0 1.976 8.919l.1.015.206.031a48.81 48.81 0 0 1-8.978 14.058 50.25 50.25 0 0 1-36.446 15.991h-.01a119.52 119.52 0 0 1-8.032 23.447h-28.692c-.103-.319-.195-.648-.288-.967a32.6 32.6 0 0 0 7.939-.473l-6.386-7.857a1.78 1.78 0 0 1-.134-.154l-3.25-4v-.002a47.75 47.75 0 0 1 1.399-12.164z" fill="#f2f2f2"/><path d="M202.721 514.442h6.946l3.306-26.794h-10.252v26.794z" class="D"/><path d="M200.454 509.684l11.098-.662v4.755l10.551 7.287a2.97 2.97 0 0 1-1.688 5.414h-13.212l-2.277-4.703-.889 4.703h-4.982z" class="B"/><path d="M115.658 508.54l6.454 2.569 12.98-23.671-9.525-3.792-9.909 24.894z" class="D"/><path d="M115.311 503.281l10.556 3.489-1.759 4.418 7.108 10.672a2.97 2.97 0 0 1-3.57 4.406l-12.276-4.887-.376-5.212-2.566 4.041-4.628-1.842zm73.407-68.567l-11.583-54.056-18.088 60.061-28.641 56.954-.152.302-9.073-4.885c-1.28-23.126 1.761-44.796 12.883-63.745l5.267-52.012c.161-1.777 4.09-43.5 16.53-50.899l3.643-8.307 36.235-8.949.132.149a27.7 27.7 0 0 1 6.638 13.913l10.827 65.592.006.037-2.903 45.758 3.971 67.508h-14.369q-13.334-25.088-11.322-67.419z" class="B"/><path d="M365.687 214.135c0 15.364 22.814 42.344 27.818 27.818 6.126-17.784 19.195-29.057 27.818-27.818 15.207 2.185-12.455-27.818-27.818-27.818s-27.818 12.455-27.818 27.818zm-5.844-87.12c-3.608 14.934 12.455 27.818 27.818 27.818a27.82 27.82 0 0 0 27.818-27.818c0-15.364-20.708-14.199-27.818-27.818-8.14-15.591-20.063-4.283-27.818 27.818zm-128.552-1.168c0 15.364 12.455 27.818 27.818 27.818s28.265-12.461 27.818-27.818c-.935-32.171-13.399-44.778-27.818-27.818-9.952 11.705-27.818 12.455-27.818 27.818zm-2.337 88.288c-12.982-5.612 9.565 23.149 27.818 27.818 14.884 3.807 27.818-12.455 27.818-27.818a27.82 27.82 0 0 0-27.818-27.818c-15.364 0-13.716 33.915-27.818 27.818z" class="F"/><path d="M541.984 34.484H87.691c-.983-.021-1.769-.824-1.769-1.807s.786-1.786 1.769-1.807h454.293c.983.021 1.769.824 1.769 1.807s-.786 1.786-1.769 1.807z" fill="#cacaca"/><g class="E"><ellipse cx="118.615" cy="10.823" rx="10.588" ry="10.823"/><ellipse cx="155.19" cy="10.823" rx="10.588" ry="10.823"/><ellipse cx="191.765" cy="10.823" rx="10.588" ry="10.823"/><path d="M519.963 2.683h-25.981a1.97 1.97 0 0 0-1.929 1.967 1.97 1.97 0 0 0 1.929 1.967h25.981a1.97 1.97 0 0 0 1.929-1.967 1.97 1.97 0 0 0-1.929-1.967z"/><use xlink:href="#B"/><use xlink:href="#B" y="7.375"/></g><path d="M390.392 114.39h-37.21a5.89 5.89 0 0 0-5.889 5.889v37.21a5.89 5.89 0 0 0 5.889 5.889h37.21a5.89 5.89 0 0 0 5.889-5.889v-37.21a5.89 5.89 0 0 0-5.889-5.889zm-6.987 12.563h-4.267c-2.914 0-3.481 1.379-3.481 3.416v4.319h6.948l-.902 6.781h-6.059v17.682a20.98 20.98 0 0 1-7.838-.019v-17.663h-5.556v-6.781h5.66v-5.015c0-5.995 4.164-9.269 9.527-9.269 2.578 0 5.337.193 5.969.284zm-86.089-12.563h-37.21a5.89 5.89 0 0 0-5.889 5.889v37.21a5.89 5.89 0 0 0 5.889 5.889h37.21a5.89 5.89 0 0 0 5.889-5.889v-37.21a5.89 5.89 0 0 0-5.889-5.889zm-18.605 37.557c-7.215 0-13.063-5.849-13.063-13.063s5.849-13.063 13.063-13.063 13.063 5.849 13.063 13.063-5.849 13.063-13.063 13.063zm14.696-26.127c-1.321 0-2.512-.796-3.017-2.016s-.226-2.625.708-3.559 2.339-1.213 3.559-.708 2.016 1.696 2.016 3.017c0 1.804-1.462 3.266-3.266 3.266z" class="G"/><path d="M399.357 202.277a7.26 7.26 0 0 1 7.085 8.583l13.903 9.046-3.437 9.789-19.454-13.051a7.3 7.3 0 0 1 1.903-14.368z" class="C"/><path d="M404.309 226.064l9.923-11.457 12.822 5.946 26.201 20.852c3.435.401 29.499 3.765 29.02 13.337a7.75 7.75 0 0 1-2.771 5.858c-4.114 3.396-11.243 2.432-11.509 2.393l-17.057-.853c-.892.215-10.152 2.342-15.053-.702-1.487-.924-31.575-35.374-31.575-35.374z" class="E"/><path d="M432.925 518.689l-8.127-.001-3.866-31.347h11.994l-.001 31.348z" class="C"/><path d="M434.998 526.567l-26.205-.001v-.331c0-5.633 4.567-10.199 10.2-10.2h.001l4.787-3.631 8.931 3.632h2.288z" class="B"/><path d="M522.127 512.328l-7.834 2.164-12.073-29.187 11.562-3.193 8.345 30.216z" class="C"/><path d="M526.223 519.37l-25.259 6.977-.088-.319c-1.499-5.43 1.686-11.047 7.116-12.547h.001l3.647-4.775 9.576 1.123 2.205-.609zm-92.94-190.391l61.41 3.133.02.056a60.47 60.47 0 0 1 2.487 31.903h0l1.88 15.666 9.4 48.878 12.533 62.664s16.293 4.386-5.013 11.906-16.919 3.133-13.786-2.507-15.353-69.243-15.353-69.243l-22.559-50.758-21.932 52.638-2.507 58.277s6.58 7.833-12.219 10.966-17.859-2.82-13.473-7.206 8.146-62.664 8.146-62.664l4.386-55.144s-1.253-31.959 6.58-48.564z" class="B"/><path d="M493.331 257.388l-4.938-12.951-15.9-15.661-20.137-1.581-14.8 13.251-4.185 13.182c5.489 25.416 5.377 48.824-2.401 71.502a11.43 11.43 0 0 0 8.833 15.06c22.813 3.834 65.293 9.582 62.367-1.361-3.871-14.476-17.337-45.633-12.349-62.109a77.34 77.34 0 0 0 3.404-17.629z" class="E"/><circle cx="459.038" cy="204.169" r="17.972" class="C"/><path d="M454.134 221.197l13.7-.699c1.755-.09 3.671-.245 4.948-1.453.687-.746 1.215-1.624 1.553-2.58l3.767-8.839c1.707-4.088 3.384-8.405 2.948-12.814-.102-2.013-.947-3.918-2.37-5.345-1.494-1.415-3.754-1.644-5.502-.557-.428-2.826-2.13-5.298-4.618-6.705-2.479-1.37-5.31-1.97-8.132-1.724-4.094.264-8.003 1.805-11.177 4.405a24.26 24.26 0 0 1-2.851 2.259c-1.022.684-2.281.916-3.48.644a2.52 2.52 0 0 1-1.849-2.745c-1.999 1.495-2.536 4.264-1.239 6.397a4.47 4.47 0 0 1-4.37-.517c-1.818.902-2.967 2.755-2.968 4.784s1.148 3.883 2.965 4.786 3.989.699 5.605-.527c.831 1.165.522 2.747.413 4.174s.274 3.2 1.65 3.594c1.86.533 3.366-1.971 5.3-1.944a2.91 2.91 0 0 1 2.307 1.486c.456.841.768 1.752.923 2.696l2.476 11.145" class="B"/><path d="M362.369 249.793c-6.843.005-13.541-1.981-19.276-5.714l-2.886-1.876 3.421.38c.896.1 1.862.158 2.869.172 4.612.003 9.127-1.323 13.004-3.822a13.54 13.54 0 0 1-9.99-8.99l-.428-1.32 1.362.267a11.37 11.37 0 0 0 1.877.211 13.24 13.24 0 0 1-7.182-11.741v-1.399l1.218.538c.722.406 1.487.732 2.28.97-3.85-4.32-4.498-10.62-1.609-15.633l.595-1.026.746.921a34.09 34.09 0 0 0 21.789 12.334 1.64 1.64 0 0 0 1.317-.393c.368-.32.58-.784.58-1.273-.041-5.339 3.152-10.172 8.078-12.229s10.608-.929 14.376 2.853c2.521-.55 4.937-1.499 7.158-2.811l1.875-1.11-.683 2.068c-.633 1.919-1.695 3.668-3.105 5.115a24.39 24.39 0 0 0 3.658-1.27l2.539-1.116-1.53 2.314c-1.621 2.455-3.646 4.618-5.989 6.396v1.18c0 17.698-13.462 36.004-35.99 36.004z" class="G"/><path d="M378.508 237.191a7.26 7.26 0 0 1 7.491 8.232l14.322 8.366-2.961 9.944-20.06-12.098a7.3 7.3 0 0 1 1.208-14.443z" class="C"/><path d="M395.372 268.409l-10.697-11.576 7.416-11.087 7.992 6.706 8.738 2.091 12.33 4.675c1.717-3.002 15.035-25.657 23.652-21.462a7.75 7.75 0 0 1 4.302 4.847c1.51 5.116-2.173 11.296-2.314 11.525l-7.476 15.355c-.152.905-1.828 10.257-6.551 13.571a5.97 5.97 0 0 1-4.69 1.036c-14.675-2.775-25.016-7.068-30.292-12.527a16.08 16.08 0 0 1-2.409-3.154z" class="E"/><path d="M205.092 223.654c-1.647-3.542.967-7.496 1.899-11.309 1.74-7.115-3.163-14.817-9.81-17.283s-14.284-.405-19.994 3.909c-5.597 4.229-9.531 6.221-13.387 12.196-1.293 2.004-2.662 8.225-2.906 10.624s.997 5.15 3.26 5.676c-.442.873-.362 1.919.208 2.714s1.535 1.207 2.503 1.069c4.333-.837 12.29 1.464 12.29 1.464q11.129.637 22.257 1.274c1.901.109 3.874.208 5.582-.843.956-.56 1.62-1.51 1.817-2.6.434-2.81-2.586-4.45-3.721-6.892z" class="B"/><path d="M210.694 254.643l-1.623 10.806-2.575 17.121-.436 6.343-3.204 46.492-8.824 6.788c-10.577 8.136-25.577 7.036-34.853-2.557l-10.715-5.159c5.743-5.65 4.675-31.833 4.675-31.833l-.064-51.427 14.525-4.885 4.784-9.419h17.164l4.291 10.012 7.788 3.561 3.547 1.631z" class="F"/><circle cx="181.674" cy="217.572" r="14.512" class="D"/><path d="M173.383 213.02a18.57 18.57 0 0 1-10.712-3.38l-.105-.073h0c0-3.744 1.487-7.334 4.134-9.981s6.238-4.134 9.981-4.134h5.762c3.719.004 7.284 1.488 9.908 4.123s4.092 6.207 4.08 9.926c-.025 1.748-1.437 3.158-3.185 3.18l-19.532.337-.331.003z" class="B"/><path d="M215.862 284.477l-13.145.108-.966 23.397-10.68 13.076a7.15 7.15 0 1 0 8.254 8.112l14.713-20.396zm-69.311.7l-13.475-6.299-14.714 18.217-16.368 4.14a7.15 7.15 0 1 0 1.798 11.433l23.968-7.617z" class="D"/><g class="B"><path d="M188.935 230.964l5.024-6.268c.543-.549.896-1.257 1.008-2.021.026-.766-.696-1.587-1.424-1.346-.676.223-4.57-9.533-5.281-9.531-.738.002-.978-.981-.988-1.719-.035-2.794 2.236.206 2.987-2.486s3.678-.377 6.201-1.58 5.951-.656 7.51 1.663c1.156 1.719 1.114 3.954.96 6.02a94.53 94.53 0 0 1-2.158 14.242c-.265 1.151-.661 2.437-1.721 2.957a4.1 4.1 0 0 1-1.839.275l-7.736-.038"/><circle cx="200.989" cy="196.865" r="7.152"/></g><path d="M217.073 284.251c-.772 1.344-2.417 1.881-3.919 2.296-2.031.565-2.625 1.137-4.656 1.702l-2.439.665a34.5 34.5 0 0 1-4.069.837c-1.151.164-2.51.164-3.261-.729a3.76 3.76 0 0 1-.565-2.596q.44-16.477.887-32.954l.622.215a8.11 8.11 0 0 1 .873-.501 9.81 9.81 0 0 1 4.627-1.066 9.4 9.4 0 0 1 2.71.422c2.759.876 4.993 2.921 6.107 5.593a17.19 17.19 0 0 1 1.001 6.215l.014.965c.043 2.746-1.352 5.492-1.309 8.239a6.44 6.44 0 0 0 .315 2.281c.286.729.844 1.337 1.058 2.095.215.751-.136 1.781-.915 1.838a3 3 0 0 1 2.918 4.484zm-63.939-32.971c2.896.174 5.562 1.631 7.274 3.973s2.29 5.325 1.577 8.137a19.55 19.55 0 0 1-3.465 6.368l-4.807 6.69c-.488.6-.863 1.283-1.107 2.016-.202.759-.122 1.581-.399 2.316s-1.169 1.351-1.832.93c.973.573 1.542 1.643 1.474 2.77s-.762 2.121-1.797 2.572c-1.426.622-3.065.067-4.518-.489l-5.903-2.259a48.96 48.96 0 0 1-6.123-2.669c-1.022-.561-2.112-1.369-2.185-2.532-.057-.906.709-1.601 1.093-2.423 4.807-10.292 11.877-18.482 20.657-25.461z" class="F"/><path d="M160.04 313.236c0-5.755-4.241-10.392-9.547-10.392-7.105-.341-14.333-.464-21.725-.464h-2.305c-7.378 0-14.633.123-21.725.464-5.223 0-9.465 4.651-9.465 10.419-.327 4.569-.464 9.124-.45 13.638s.123 9.124.436 13.638c0 5.769 4.241 10.447 9.465 10.447 7.446.341 15.097.491 22.871.491s15.411-.137 22.884-.491c5.237 0 9.547-4.678 9.547-10.447.3-4.569.45-9.124.436-13.706s-.123-9.11-.423-13.638zm-38.636 26.28v-25.176l18.575 12.574z" class="G"/><path d="M643.941 529.229l-642.75.307a1.19 1.19 0 0 1-1.187-1.191 1.19 1.19 0 0 1 1.187-1.191l642.75-.307a1.19 1.19 0 1 1 0 2.381z" fill="#cacaca"/><defs ><path id="B" d="M519.963 10.067h-25.981a1.97 1.97 0 0 0-1.928 1.967 1.97 1.97 0 0 0 1.928 1.967h25.981a1.97 1.97 0 0 0 1.928-1.967 1.97 1.97 0 0 0-1.928-1.967z"/></defs></svg>