<svg width="3017" height="988" viewBox="0 0 3017 988" fill="none" xmlns="http://www.w3.org/2000/svg">
<path d="M198.69 792.14C212.26 791.8 221.33 791.37 230.4 791.37C365.84 791.37 501.4 788.7 636.7 792.45C725.36 794.91 791.45 713.74 790.57 637.78C790.17 602.67 790.51 567.55 790.39 532.43C790.39 526.78 789.72 521.12 789.22 513.22L347.38 517.35C347.22 451.97 347.07 389.62 346.92 328.88L981.84 329.06C982.5 333.71 984.43 340.89 984.41 348.06C984.144 495.153 983.737 642.237 983.19 789.31C983.07 825.08 970.31 857.04 948.45 884.16C923.31 915.35 895.23 943.87 859.18 963.67C834.18 977.37 808.27 984.19 780.18 984.19C668.18 984.19 556.21 984.19 444.27 984.19C366.6 984.32 288.93 984.88 211.27 985.4C205.47 985.4 199.67 986.7 191.47 987.69C188.83 920.78 198.39 858.18 198.69 792.14Z" fill="#266691"/>
<path d="M189.54 790.63L1.88995 978.26C1.23995 969.51 0.36996 963.26 0.36996 957.11C0.256627 709.57 0.133298 462.03 -3.51894e-05 214.49C-0.110035 158.67 19.81 111.84 58.72 72.9301C73.983 57.6013 90.394 43.4602 107.81 30.63C136.25 9.79 169.08 0.49 204.23 0.5C245.88 0.5 287.53 1.58003 329.17 1.66003C355.88 1.66003 382.58 0.469985 409.29 0.359985C460.85 0.139985 512.42 0.359985 563.99 0.359985C695.13 0.273319 826.267 0.166706 957.4 0.0400391C963.15 0.0400391 968.9 0.389961 978.22 0.709961C973.04 6.89996 969.95 11.2301 966.22 14.9401C913.05 68.2101 859.6 121.22 806.7 174.77C795.2 186.41 782.89 190.37 766.49 190.15C703.89 189.34 641.26 190.36 578.65 190.3C498.54 190.22 418.43 189.7 338.32 189.48C306.21 189.39 278.01 201.88 252.11 219.13C232.68 232.13 217.25 249.18 205.57 270.13C193.127 291.956 186.901 316.775 187.57 341.89C188.48 388.5 187.73 435.13 188.14 481.75C188.42 514.22 189.7 546.67 190.14 579.14C190.46 604.96 190.14 630.79 190.14 656.62C189.94 700.83 189.73 745.06 189.54 790.63Z" fill="#266691"/>
<path d="M1236.09 486.516L1245.64 507.212H1324.04V608.702H1224.94H1224.54C1172.01 601.936 1132.21 557.758 1132.21 506.018C1132.21 454.676 1172.01 410.498 1224.54 403.732L1224.94 403.334H1343.94V383.036H1239.27C1205.44 383.036 1174 395.772 1150.12 418.856C1126.24 441.94 1112.71 472.984 1112.71 506.018C1112.71 539.45 1126.24 570.494 1150.12 593.578C1174 616.662 1205.44 629 1239.27 629H1344.34V486.516H1236.09ZM1526.58 506.018L1521.8 498.854L1517.42 491.292L1524.59 486.516C1524.59 486.516 1524.98 486.516 1524.98 486.118C1524.98 486.118 1524.98 486.118 1525.38 486.118L1525.78 485.72C1526.18 485.322 1526.97 484.924 1527.37 484.526H1527.77L1528.17 484.128C1528.57 484.128 1528.96 483.73 1529.76 483.332C1530.95 482.138 1532.55 480.944 1533.74 480.148L1534.14 479.75C1534.54 479.75 1534.54 479.352 1534.93 479.352C1535.33 478.954 1535.73 478.556 1536.53 478.158C1537.32 477.362 1537.72 476.964 1538.52 476.168H1538.91C1539.31 475.372 1540.11 474.974 1540.51 474.576C1542.1 473.382 1543.69 471.79 1545.28 470.198C1562.4 453.482 1573.94 432.388 1579.11 409.304C1581.1 400.548 1581.9 391.394 1581.9 382.24V381.842H1380.11V474.178L1391.26 468.606L1400.41 463.83V402.14H1560.41L1556.82 413.682C1551.65 429.602 1542.89 443.93 1530.95 455.87C1521.8 464.626 1511.05 471.79 1499.51 476.964C1486.38 482.536 1472.85 485.322 1458.52 485.322H1380.11V629H1400.41V505.62H1458.52C1459.31 505.62 1460.11 505.62 1460.91 505.62H1461.7H1462.5C1462.9 505.62 1463.69 505.62 1464.49 505.62H1464.89C1466.08 505.62 1466.88 505.62 1467.67 505.222H1468.07C1468.87 505.222 1470.06 505.222 1470.86 505.222H1471.25C1472.05 504.824 1472.85 504.824 1473.64 504.824C1474.04 504.824 1474.44 504.824 1474.44 504.824H1474.84C1475.63 504.426 1476.43 504.426 1476.83 504.426H1477.22C1477.22 504.426 1477.62 504.426 1477.62 504.028H1478.02C1478.82 504.028 1479.21 504.028 1479.61 504.028C1482 503.63 1483.99 503.232 1485.98 502.436C1487.17 502.436 1487.97 502.038 1488.77 502.038H1489.16L1489.56 501.64C1490.36 501.64 1490.76 501.64 1491.15 501.242H1491.55H1491.95L1498.32 499.252L1501.9 505.222L1503.89 508.406L1577.52 629H1601.4L1526.58 506.018ZM1659.65 629V382.24H1639.36V629H1659.65ZM1834.17 382.638H1832.18H1697.66V473.382L1707.61 468.606L1717.96 463.432V402.936H1827.41H1827.8C1829 402.936 1829.79 402.936 1830.59 402.936C1853.28 402.936 1871.98 421.642 1871.98 444.328C1871.98 467.014 1853.28 485.322 1830.59 485.322H1717.96H1697.66V629H1717.96V506.018H1829.79L1835.76 505.62C1850.89 504.426 1865.22 497.262 1875.96 486.118C1886.31 474.576 1892.28 459.85 1892.28 444.328C1892.28 411.294 1866.81 384.628 1834.17 382.638ZM1849.63 629H1873.91L1951.52 480.148L1939.58 456.666L1849.63 629ZM1992.11 413.284L1976.99 384.23L1965.05 407.314L1986.94 449.9L2080.47 629H2104.75L1992.11 413.284ZM2195.56 402.936H2346.8V382.638H2195.56C2171.68 382.638 2149.39 395.374 2137.45 416.07C2131.88 426.02 2128.69 437.562 2128.69 449.104C2128.69 461.044 2131.88 472.188 2137.45 482.536C2149.39 503.232 2171.68 515.968 2195.56 515.968H2277.94C2303.42 515.968 2324.51 536.664 2324.51 562.534C2324.51 588.006 2303.42 608.702 2277.94 608.702H2128.69V629H2277.94C2301.82 629 2324.11 616.264 2336.05 595.568C2341.62 585.618 2344.81 574.076 2344.81 562.534C2344.81 550.992 2341.62 539.45 2336.05 529.5C2324.11 508.406 2301.82 495.67 2277.94 495.67H2195.56C2170.09 495.67 2148.99 474.974 2148.99 449.104C2148.99 423.632 2170.09 402.936 2195.56 402.936Z" fill="#266691"/>
<path d="M1111.39 944H1131.37V813.76L1111.39 793.78V944ZM1288.25 752.34L1218.69 822.27L1111.39 714.97V743.09L1131.37 762.7L1146.17 777.5L1218.69 850.39L1226.46 842.25L1229.05 839.66L1238.67 830.04L1289.36 779.35L1304.16 764.55V944H1324.14V716.82L1288.25 752.34ZM1346.25 944H1368.82L1440.97 805.62L1429.87 783.79L1346.25 944ZM1478.71 743.46L1464.65 716.45L1453.55 737.91L1473.9 777.5L1560.85 944H1583.42L1478.71 743.46ZM1741.85 829.67L1737.41 823.01L1733.34 815.98L1740 811.54C1740 811.54 1740.37 811.54 1740.37 811.17C1740.37 811.17 1740.37 811.17 1740.74 811.17L1741.11 810.8C1741.48 810.43 1742.22 810.06 1742.59 809.69H1742.96L1743.33 809.32C1743.7 809.32 1744.07 808.95 1744.81 808.58C1745.92 807.47 1747.4 806.36 1748.51 805.62L1748.88 805.25C1749.25 805.25 1749.25 804.88 1749.62 804.88C1749.99 804.51 1750.36 804.14 1751.1 803.77C1751.84 803.03 1752.21 802.66 1752.95 801.92H1753.32C1753.69 801.18 1754.43 800.81 1754.8 800.44C1756.28 799.33 1757.76 797.85 1759.24 796.37C1775.15 780.83 1785.88 761.22 1790.69 739.76C1792.54 731.62 1793.28 723.11 1793.28 714.6V714.23H1605.69V800.07L1616.05 794.89L1624.56 790.45V733.1H1773.3L1769.97 743.83C1765.16 758.63 1757.02 771.95 1745.92 783.05C1737.41 791.19 1727.42 797.85 1716.69 802.66C1704.48 807.84 1691.9 810.43 1678.58 810.43H1605.69V944H1624.56V829.3H1678.58C1679.32 829.3 1680.06 829.3 1680.8 829.3H1681.54H1682.28C1682.65 829.3 1683.39 829.3 1684.13 829.3H1684.5C1685.61 829.3 1686.35 829.3 1687.09 828.93H1687.46C1688.2 828.93 1689.31 828.93 1690.05 828.93H1690.42C1691.16 828.56 1691.9 828.56 1692.64 828.56C1693.01 828.56 1693.38 828.56 1693.38 828.56H1693.75C1694.49 828.19 1695.23 828.19 1695.6 828.19H1695.97C1695.97 828.19 1696.34 828.19 1696.34 827.82H1696.71C1697.45 827.82 1697.82 827.82 1698.19 827.82C1700.41 827.45 1702.26 827.08 1704.11 826.34C1705.22 826.34 1705.96 825.97 1706.7 825.97H1707.07L1707.44 825.6C1708.18 825.6 1708.55 825.6 1708.92 825.23H1709.29H1709.66L1715.58 823.38L1718.91 828.93L1720.76 831.89L1789.21 944H1811.41L1741.85 829.67ZM1852.55 714.97H1833.68V830.78L1852.55 811.91V714.97ZM1910.27 829.67L1916.19 823.75L2024.97 714.97H1998.33L1895.84 817.46L1852.55 860.38L1833.68 879.25V944H1852.55V887.39L1896.95 842.99L1998.33 944H2024.97L1910.27 829.67ZM2079.11 830.04H2237.1V811.17H2079.11V768.25H2060.24V944H2261.15V925.13H2079.11V830.04ZM2261.15 733.84V714.97H2060.24V733.84H2261.15ZM2391.96 944V768.25H2373.09V944H2391.96ZM2485.94 733.84V714.97H2283.18V733.84H2485.94ZM2539.8 944V714.6H2520.93V944H2539.8ZM2575.13 944H2594V820.05L2575.13 801.18V944ZM2734.97 714.97V885.54L2575.13 726.07V752.71L2594 771.58L2608.06 785.64L2732.38 909.96L2753.84 931.42V714.97H2734.97ZM2897.23 811.54L2906.11 830.78H2979V925.13H2886.87H2886.5C2837.66 918.84 2800.66 877.77 2800.66 829.67C2800.66 781.94 2837.66 740.87 2886.5 734.58L2886.87 734.21H2997.5V715.34H2900.19C2868.74 715.34 2839.51 727.18 2817.31 748.64C2795.11 770.1 2782.53 798.96 2782.53 829.67C2782.53 860.75 2795.11 889.61 2817.31 911.07C2839.51 932.53 2868.74 944 2900.19 944H2997.87V811.54H2897.23Z" fill="#266691"/>
</svg>
