<svg xmlns="http://www.w3.org/2000/svg" xmlns:xlink="http://www.w3.org/1999/xlink" width="852" height="663.773" xmlns:v="https://vecta.io/nano"><style><![CDATA[.B{fill:#3f3d56}.C{fill:#f0f0f0}.D{fill:#2f2e41}.E{fill:#a0616a}.F{fill:#266590}]]></style><path d="M249.654 554.788l-.09-15.217-1.342-225.787-.05-8.449-.739-124.269a272.63 272.63 0 0 0-34.631-18.46c-46.904-20.77-102.675-29.335-148.854-7.011-24.654 12.38-43.727 33.609-53.408 59.442a47.63 47.63 0 0 0-.754 2.005c-7.702 21.968-7.645 45.826 3.63 66.425 20.184 37.019 65.322 50.692 105.412 63.755 40.069 13.064 84.507 34.339 94.498 75.292-17.134-21.06-44.301-31.232-71.052-26.603s-48.922 23.337-57.983 48.93c-.733 2.048-1.402 4.116-1.985 6.205a71.19 71.19 0 0 0-2.505 15.381c-1.956 39.705 28.478 75.28 64.588 91.943 32.653 15.045 69.298 17.913 105.404 19.359z" class="C"/><path d="M249.564 539.571l.09 15.217a164.62 164.62 0 0 0-90.663-92.384 166.32 166.32 0 0 0-76.687-11.356 91.61 91.61 0 0 1 1.985-6.205 177.21 177.21 0 0 1 30.437.458c36.094 3.676 70.048 18.869 96.841 43.332a172.66 172.66 0 0 1 37.996 50.939zm-1.392-234.236l.05 8.449a211.52 211.52 0 0 0-27.29-22.228c-30.133-20.742-64.172-36.417-98.721-48.152a458.52 458.52 0 0 0-109.447-22.953 3.28 3.28 0 0 1-2.979-3.409 2.81 2.81 0 0 1 .754-2.005 2.33 2.33 0 0 1 2.019-.608l13.778 1.323a463.34 463.34 0 0 1 111.578 26.899c34.685 13.032 68.987 29.855 98.302 52.709 4.127 3.147 8.127 6.464 11.957 9.975z" fill="#fff"/><circle cx="48.759" cy="104.771" r="12.77" class="C"/><path d="M572.263 157.737h-3.647V57.826c0-15.336-6.092-30.045-16.937-40.889S526.126 0 510.79 0H299.114c-31.936 0-57.826 25.889-57.826 57.826v548.121c0 31.936 25.89 57.826 57.826 57.826h211.676c31.936 0 57.826-25.889 57.826-57.826V228.856h3.647z" class="B"/><path d="M556.309 58.23v547.32l-.07 2.38c-1.258 22.893-20.192 40.809-43.12 40.8h-212.69c-22.987.006-41.946-18.003-43.12-40.96q-.06-1.095-.06-2.22V58.23c-.002-23.85 19.33-43.187 43.18-43.19h25.81a20.52 20.52 0 0 0 18.99 28.27h121.27a20.52 20.52 0 0 0 18.99-28.27h27.63c23.852.002 43.188 19.338 43.19 43.19z" fill="#fff"/><path d="M552.381 471H261.17c-2.13-.002-3.856-1.728-3.859-3.858V109.869c.003-2.13 1.729-3.856 3.859-3.858h291.211c2.13.002 3.856 1.728 3.859 3.858v357.273c-.003 2.13-1.729 3.856-3.859 3.858z" class="C"/><path d="M531.009 130.94h-247.87c-2.131.001-3.859 1.729-3.86 3.86v258.15a3.86 3.86 0 0 0 3.86 3.85h247.87a3.86 3.86 0 0 0 3.86-3.85V134.8c-.001-2.131-1.729-3.859-3.86-3.86z" fill="#fff"/><circle cx="278.839" cy="83" r="10" class="F"/><path d="M326.404 409.529c-17.076-27.502-11.192-62.637-8.318-94.882 4.293-48.377.419-97.131-11.46-144.223 14.149 15.8 23.485 35.317 26.907 56.249 2.819 17.454 1.426 35.412 4.619 52.801 6.847 37.289 34.421 70.917 30.154 108.588-.943 8.327-4.116 17.282-11.509 21.228-8.345 4.454-18.531.911-27.284-2.674" class="C"/><g class="F"><use xlink:href="#B"/><use xlink:href="#B" x="44"/><use xlink:href="#B" x="88"/><use xlink:href="#C"/></g><path d="M552.379 538.01h-291.21c-2.131.001-3.859 1.729-3.86 3.86v65.9c1.174 22.957 20.133 40.966 43.12 40.96h212.69c22.927.009 41.862-17.907 43.12-40.8v-66.06c-.001-2.131-1.729-3.859-3.86-3.86z" class="C"/><path d="M531.009 562.94h-247.87c-2.131.001-3.859 1.729-3.86 3.86v76.4a42.95 42.95 0 0 0 21.15 5.53h212.69c7.643.011 15.15-2.015 21.75-5.87V566.8c-.001-2.131-1.729-3.859-3.86-3.86z" fill="#fff"/><g fill="#e4e4e4"><circle cx="278.839" cy="515" r="10"/><use xlink:href="#C" y="432"/></g><path d="M383.598 648.73h-73.27c7.46-14.68 21.23-26.64 37.46-27.27a33.04 33.04 0 0 1 7.3.54c1.01.18 2 .42 2.99.68 12.688 3.264 22.518 13.298 25.519 26.05zm117.191 0h-99.49a143.56 143.56 0 0 0 3.89-13.9c4.47-19.31 9.02-40.99 25.51-51.97 9.18-6.12 20.35-7.12 30.94-4.42a17.43 17.43 0 0 1 .97.27 51.43 51.43 0 0 1 30.02 22.55c8.43 14.14 10.31 30.96 8.16 47.47z" fill="#f2f2f2"/><path d="M359.109 636.94c-.048 3.951-.399 7.893-1.05 11.79h-2.86c1.504-8.85 1.466-17.893-.11-26.73 1.01.18 2 .42 2.99.68.758 4.714 1.102 9.486 1.03 14.26zm103.87-57.31l-.06 6.5a217.26 217.26 0 0 1-8 53.33q-1.29 4.65-2.79 9.27h-2.94c1.8-5.48 3.37-11.03 4.73-16.59a214.77 214.77 0 0 0 6.24-52.16 1.55 1.55 0 0 1 1.48-1.54 1.35 1.35 0 0 1 .97.27c.262.231.399.572.37.92z" fill="#fff"/><circle cx="515.792" cy="592.066" r="6" fill="#f2f2f2"/><circle cx="371.973" cy="154.198" r="6" class="F"/><g fill="#e4e4e4"><circle cx="482.973" cy="189.198" r="6"/><circle cx="479.973" cy="311.198" r="6"/></g><path d="M453.419 374.38l-4.06-13c-.698-3.025-1.583-6.004-2.65-8.92-4.58-13.84-14.64-41.75-26.49-70.91l-13.94-13.94-3.86-2.52-3.65-2.37-1.57 1.45-14.97 13.82-.11.91-9.78 83.12-.08.68-.64 5.78c-.57 5.32-1.49 14.61-2.4 26.32h90.57z" class="B"/><path opacity=".2" d="M389.236 315.262l-3.801 23.715 25.722 10.61-21.921-34.325z"/><path d="M435.289 209.15c-9.567-10.448-24.569-13.95-37.773-8.816s-21.9 17.849-21.897 32.016v25.63c.001 2.551 2.069 4.619 4.62 4.62h59.47a4.62 4.62 0 0 0 4.61-4.62v-25.63a34.28 34.28 0 0 0-9.03-23.2z" class="D"/><circle cx="416.537" cy="235.868" r="25.183" fill="#ffb8b8"/><g class="D"><path d="M435.289 209.15a26.9 26.9 0 0 0-10.01-1.92h-5.13a27.13 27.13 0 0 0-22.08 11.37l-.47.67c-3.018 4.468-4.628 9.738-4.62 15.13v.51h10.83l3.7-10.35.74 10.35h5.6l1.86-5.22.37 5.22c11.711 4.328 23.86 4.051 36.37 0v-.51a27.2 27.2 0 0 0-17.16-25.25z"/><path d="M419.948 260.82a1.33 1.33 0 0 0-.08-.17c-3.39-6.46-7.64-16.35-7.88-25.74-.14-5.61 1.16-11.05 4.94-15.46l.72-.85h-29.31v44.01l8.86 1.56 5.22.92 12.55 2.22c.271.048.545.072.82.07a4.6 4.6 0 0 0 3.72-1.9c.617-.83.927-1.847.88-2.88-.019-.618-.169-1.225-.44-1.78z"/></g><path d="M372.95 360.864h0a46.26 46.26 0 0 0 55.527 11.223l5.481-2.713z" opacity=".2"/><path d="M656.953 436.692a11.84 11.84 0 0 1 14.454-10.983l15.656-22.064 15.728 6.244-22.547 30.847c-1.725 5.779-7.5 9.355-13.442 8.323s-10.174-6.345-9.849-12.368z" class="E"/><path d="M674.128 417.717l27.836-46.816-11.341-30.242 15.446-41.19.57.244c.373.16 9.15 4.076 10.451 18.102l17.75 55.785-47.372 61.456z" class="B"/><path d="M522.95 245.608a11.84 11.84 0 0 1 9.833 15.26l20.787 17.315-7.441 15.199-29.012-24.864c-5.629-2.167-8.747-8.201-7.259-14.046s7.113-9.653 13.092-8.864z" class="E"/><path d="M540.54 264.198l44.523 31.372 31.029-8.969 39.872 18.584-.288.549c-.188.36-4.772 8.807-18.855 9.02l-56.991 13.384-57.61-51.982z" class="B"/><path d="M622.01 645.697l-15.479-.001-7.364-59.703 22.845.001-.002 59.703z" class="E"/><use xlink:href="#D" class="D"/><path d="M683.874 645.697l-15.478-.001-7.364-59.703 22.845.001-.003 59.703z" class="E"/><g class="D"><use xlink:href="#D" x="61.864"/><path d="M689.379 427.774l-1.262 88.379-1.263 116.154-27.776-2.525-13.888-160.344-17.675 160.344h-28.676l-2.888-161.606 10.1-35.351 83.328-5.051z"/></g><path d="M603.283 433.364l-4.231-.183 19.655-108.275-8.048-32.726c-.866-3.524 1.041-7.139 4.439-8.414l14.48-5.429 5.115-14.068 40.36 4.349.993 10.995c4.374 1.403 40.39 13.397 37.904 27.064-2.453 13.49-16.935 55.93-17.67 58.081l-2.536 60.865-.312.156c-.376.188-28.195 13.866-58.417 13.864-10.643-.001-21.59-1.698-31.732-6.279z" class="B"/><circle cx="827.291" cy="346.36" r="29.06" transform="matrix(.47966 -.877455 .877455 .47966 -47.44258 788.02191)" class="E"/><path d="M676.829 256.377c-5.538 5.899-15.823 2.732-16.545-5.327-.057-.626-.052-1.255.012-1.88.373-3.57 2.435-6.811 1.941-10.58a5.55 5.55 0 0 0-1.015-2.597c-4.413-5.91-14.773 2.643-18.938-2.707-2.554-3.28.448-8.445-1.512-12.111-2.587-4.839-10.248-2.452-15.053-5.102-5.346-2.949-5.026-11.15-1.507-16.139 4.291-6.084 11.816-9.33 19.246-9.798s14.81 1.541 21.747 4.244c7.882 3.072 15.698 7.317 20.548 14.247 5.899 8.428 6.466 19.759 3.516 29.614-1.795 5.995-7.919 13.319-12.441 18.136z" class="D"/><path d="M851 662H1a1 1 0 1 1 0-2h850a1 1 0 1 1 0 2z" class="B"/><path d="M466.006 372.041h-15.573c-1.036.003-1.903-.783-2-1.814l-3.117-31.952h25.809l-3.117 31.951c-.097 1.031-.965 1.818-2 1.815z" class="F"/><path d="M471.083 342.295h-25.726c-1.109-.001-2.009-.9-2.01-2.01v-4.824c.001-1.109.9-2.009 2.01-2.01h25.726c1.109.001 2.009.9 2.01 2.01v4.824c-.001 1.109-.9 2.009-2.01 2.01z" class="B"/><path d="M460.581 355.067c-2.274-2.555-5.563-3.971-8.981-3.868s-6.616 1.715-8.732 4.403l-25.427-7.138-8.106 14.394 36.049 9.576a11.62 11.62 0 0 0 15.197-17.367z" fill="#ffb8b8"/><path d="M419.238 347.26l-12.07-7.69-3.44-1.62-15.55-7.33c.46-1.58 1.78-6.3 3.03-12.28 2.92-13.99 5.41-34.88-4.64-38.54a14.1 14.1 0 0 0-4.45-.9c-2.037-.074-4.058.388-5.86 1.34-7.53 3.93-10.52 14.99-10.63 15.4l-9.31 25.55c-.86 1.18-9.71 13.44-8.28 22.52.363 2.637 1.814 5.001 4 6.52a171.69 171.69 0 0 0 20.22 12.47q2.445 1.26 4.78 2.33c8.72 3.98 16.41 6.01 22.87 6.01a25.55 25.55 0 0 0 6.27-.73l25.09-.57.16-.72.06-.28 3.33-15.4.94-4.36z" class="B"/><defs ><path id="B" d="M297.586 420.945a10 10 0 0 0-14.137-.035 10 10 0 0 0-.035 14.137l.034.034 14.138 14.135 14.138-14.135a10 10 0 0 0-.02-14.118 10 10 0 0 0-14.118-.017z"/><path id="C" d="M463.307 90.842H322.292c-2.759.003-5.31-1.467-6.69-3.856s-1.38-5.333 0-7.721 3.931-3.859 6.69-3.856h141.015c2.759-.003 5.31 1.467 6.69 3.856s1.38 5.333 0 7.721-3.931 3.859-6.69 3.856z"/><path id="D" d="M590.799 641.274h34.528a0 0 0 0 1 0 0v18.795a0 0 0 0 1 0 0h-48.647a0 0 0 0 1 0 0v-4.676a14.119 14.119 0 0 1 14.119-14.119z"/></defs></svg>