<svg xmlns="http://www.w3.org/2000/svg" xmlns:xlink="http://www.w3.org/1999/xlink" width="660.472" height="645.448" xmlns:v="https://vecta.io/nano"><path d="M204.141 604.255l.707-15.9a51.35 51.35 0 0 1 23.953-6.063c-11.504 9.405-10.066 27.536-17.866 40.184a30.89 30.89 0 0 1-22.651 14.274l-9.627 5.894a51.76 51.76 0 0 1 10.91-41.943c2.692-3.22 5.779-6.089 9.189-8.538 2.306 6.08 5.386 12.092 5.386 12.092zm397.932-231.677c25.955-19.769 38.352-52.989 30.591-84.679q-.289-1.181-.611-2.357c-5.145-18.811-17.874-36.689-36.427-42.699-15.578-5.047-32.581-1.166-48.832-3.173-31.902-3.94-56.635-29.752-74.038-56.778s-30.777-57.278-53.902-79.605C380.738 66.485 318.559 58.561 271.3 82.517s-77.363 77.104-76.08 130.073 32.729 103.611 78.396 130.48c16.776 9.87 36.179 16.863 55.489 14.416 16.755-2.123 31.979-11.126 48.655-13.799 26.219-4.202 52.27 7.652 74.948 21.466s44.582 30.188 70.351 36.592c25.022 6.218 56.022-11.655 79.014-29.167z" fill="#f2f2f2"/><path d="M396.705 136.023h-258.57c-11.228.013-20.327 9.112-20.34 20.34v128.69c.013 11.228 9.112 20.327 20.34 20.34h258.57c11.23-.01 20.33-9.11 20.34-20.34v-128.69c-.01-11.23-9.11-20.33-20.34-20.34z" fill="#fff"/><path d="M396.706 306.396H138.14c-11.78-.013-21.327-9.56-21.34-21.34V156.362c.013-11.78 9.56-21.327 21.34-21.34h258.566c11.78.013 21.327 9.56 21.34 21.34v128.694c-.013 11.78-9.56 21.327-21.34 21.34zM138.14 137.021c-10.676.012-19.328 8.664-19.34 19.34v128.694c.012 10.676 8.664 19.328 19.34 19.34h258.566c10.676-.012 19.328-8.664 19.34-19.34V156.362c-.012-10.676-8.664-19.328-19.34-19.34z" fill="#ccc"/><path d="M408.6 341.972H160.812a8.08 8.08 0 0 1-8.076-8.076 8.08 8.08 0 0 1 8.076-8.076H408.6a8.08 8.08 0 0 1 8.076 8.076 8.08 8.08 0 0 1-8.076 8.076z" fill="#e6e6e6"/><path d="M240.248 264.965c-1.468-.004-2.911-.38-4.194-1.092a8.58 8.58 0 0 1-4.508-7.62V184.43c0-3.172 1.727-6.092 4.507-7.62s6.171-1.42 8.848.281l68.131 35.911c2.511 1.595 4.032 4.364 4.032 7.339s-1.521 5.743-4.032 7.339l-68.131 35.911c-1.388.892-3.003 1.369-4.654 1.374z" fill="#f2f2f2"/><path d="M640.352 229.157H532.299a8.51 8.51 0 0 1-8.5-8.5v-53.78a8.51 8.51 0 0 1 8.5-8.5h108.052a8.51 8.51 0 0 1 8.5 8.5v53.78a8.51 8.51 0 0 1-8.5 8.5z" fill="#fff"/><path d="M640.352 230.157H532.3c-5.244-.006-9.494-4.256-9.5-9.5v-53.78c.006-5.244 4.256-9.494 9.5-9.5h108.052c5.244.006 9.494 4.256 9.5 9.5v53.78c-.006 5.244-4.256 9.494-9.5 9.5zM532.3 159.377a7.51 7.51 0 0 0-7.5 7.5v53.78a7.51 7.51 0 0 0 7.5 7.5h108.052a7.51 7.51 0 0 0 7.5-7.5v-53.78a7.51 7.51 0 0 0-7.5-7.5z" fill="#ccc"/><path d="M622.6 255.472h-72.789a8.08 8.08 0 0 1-8.067-8.076 8.08 8.08 0 0 1 8.067-8.076H622.6a8.08 8.08 0 0 1 8.076 8.076 8.08 8.08 0 0 1-8.076 8.076z" fill="#e6e6e6"/><use xlink:href="#B" fill="#266590"/><path d="M571.352 460.512H463.299a8.51 8.51 0 0 1-8.5-8.5v-53.78a8.51 8.51 0 0 1 8.5-8.5h108.052a8.51 8.51 0 0 1 8.5 8.5v53.78a8.51 8.51 0 0 1-8.5 8.5z" fill="#fff"/><path d="M571.352 461.512H463.3c-5.244-.006-9.494-4.256-9.5-9.5v-53.78c.006-5.244 4.256-9.494 9.5-9.5h108.052c5.244.006 9.494 4.256 9.5 9.5v53.78c-.006 5.244-4.256 9.494-9.5 9.5zM463.3 390.733a7.51 7.51 0 0 0-7.5 7.5v53.78a7.51 7.51 0 0 0 7.5 7.5h108.052a7.51 7.51 0 0 0 7.5-7.5v-53.78a7.51 7.51 0 0 0-7.5-7.5z" fill="#ccc"/><path d="M553.6 486.972h-72.789a8.08 8.08 0 0 1-8.067-8.076 8.08 8.08 0 0 1 8.067-8.076H553.6a8.08 8.08 0 0 1 8.076 8.076 8.08 8.08 0 0 1-8.076 8.076z" fill="#e6e6e6"/><use xlink:href="#B" x="-69.263" y="233" fill="#266590"/><path d="M204.441 274.448l-55.304.371s-31.497-10.154-45.781-8.032l-5.462 21.455 39.235 12.999 68.284-9.907c4.237 2.14 9.399.926 12.239-2.878s2.535-9.098-.722-12.552-8.524-4.068-12.488-1.456z" fill="#a0616a"/><path d="M136.66 303.319l-65.614-18.871-5.973-22.258c-3.174-6.058-2.636-13.392 1.389-18.921h0c5.601-7.586 9.98-.051 17.929 5.022 13.936.985 48.72 12.887 62.84 26.668l-1.113 8.471z" fill="#3f3d56"/><path d="M193.748 285.151c-1.468-.004-2.911-.38-4.194-1.092a8.58 8.58 0 0 1-4.508-7.62v-71.822c0-3.172 1.727-6.092 4.507-7.62s6.171-1.42 8.848.281l68.131 35.911c2.511 1.595 4.032 4.364 4.032 7.339s-1.521 5.743-4.032 7.339l-68.131 35.911c-1.388.892-3.003 1.369-4.654 1.374z" fill="#266590"/><path fill="#a0616a" d="M147.978 631.089l13.959-.001 6.64-53.84-20.601.001.002 53.84z"/><path d="M144.417 626.531h3.929l15.339-6.238 8.221 6.237h.001c9.675.001 17.518 7.843 17.518 17.518v.569l-45.008.002z" fill="#2f2e41"/><path fill="#a0616a" d="M48.578 617.948l13.222 4.476 23.558-48.865-19.513-6.607-17.267 50.996z"/><path d="M46.667 612.489l3.721 1.26 16.53-.989 5.786 8.544h.001c9.163 3.104 14.076 13.048 10.974 22.211l-.183.539-42.631-14.434zm18.091-213.308s-1.63 19.559 2.445 38.303 12.844 80.964 12.844 80.964c-17.762 29.194-28.056 57.921-30 87l25 2 35.796-84.934 3.627-85.03 26.078 57.862-1.341 4.47c-.652 2.173.23 4.514 2.153 5.717h0s-2.442 15.892-.812 15.892 5.705 2.445 5.705 2.445c-10.16 31.628-11.524 61.917-2.206 90.579l22-1 14.434-124.622-10.594-67.641-.815-13.039-3.667.151-1.867-5.448-3.43-9.372z" fill="#2f2e41"/><path d="M63.349 403.289l-.145-.204c-7.757-10.86 3.91-36.957 5.669-40.74l-7.411-2.405-6.481-54.84-4.74-18.945c-3.636-14.582.877-29.991 11.805-40.308l10.956-10.33 13.315-19.701h21.471l7.362 13.906a31.3 31.3 0 0 1 24.214 31.952l-1.669 36.471 6.532 45.41.004 8.218 11.34 18.593 2.47 11.527c1.022 1.349 7.77 10.346 7.77 12.806 0 .369-.273.726-.858 1.122-4.598 3.114-30.015 9.462-41.264 4.961-11.982-4.791-59.614 2.396-60.094 2.47z" fill="#3f3d56"/><path d="M282.67 644.258c.001.315-.123.617-.345.84s-.523.349-.838.35H1.19a1.19 1.19 0 1 1 0-2.38h280.29c.655-.002 1.188.528 1.19 1.183z" fill="#ccc"/><g fill="#a0616a"><circle cx="99.826" cy="181.021" r="28.436"/><path d="M205.386 202.853l-43.873 33.673s-31.242 10.913-41.352 21.225l8.593 20.403 39.129-13.313 48.467-49.11c4.67-.851 8.054-4.934 8.022-9.681s-3.47-8.785-8.151-9.573-9.252 1.901-10.836 6.376z"/></g><path d="M168.765 266.78l-60.947 17.846-20.955-7.436c-6.187-2.914-10.184-9.087-10.311-15.925h0c-.112-9.43 7.927-6.064 17.327-6.816 11.706-7.625 46.624-19.127 66.2-16.661l4.225 7.426z" fill="#3f3d56"/><path d="M119.325 148.189c-2.038-.061-1.338-3.902-2.98-5.127q-.012.056-.025.111a4 4 0 0 1-7.648.326c-.553-1.898-1.993-3.409-3.862-4.052-.102 3.561-2.796 6.651-6.009 8.189s-6.877 1.794-10.438 1.846-7.175-.067-10.629.805-6.813 2.921-8.289 6.163-.423 7.706 2.804 9.215c-2.5.013-4.621 2.076-5.485 4.422-.708 2.406-.893 4.936-.542 7.419.703 9.195 2.415 19.095 9.111 25.436 5.103 4.833 12.407 6.78 19.436 6.752s5.793-.674 12.588-2.468c0 0 6.461-18.522 4.834-20.344s-2.978-4.153-2.684-6.578 2.9-4.597 5.162-3.674c-.38-.972-.667-1.157-.846-1.108.114-.276.214-.558.299-.845.864-2.964 3.097-5.332 6.005-6.368a7.46 7.46 0 0 1 8.151 2.467c7.441-6.979 2.825-22.237-8.952-22.586z" fill="#2f2e41"/><path d="M600.668 34.484H146.375c-.983-.021-1.769-.824-1.769-1.807s.786-1.786 1.769-1.807h454.293c.983.021 1.769.824 1.769 1.807s-.786 1.786-1.769 1.807z" fill="#cacaca"/><g fill="#3f3d56"><ellipse cx="177.299" cy="10.823" rx="10.588" ry="10.823"/><ellipse cx="213.874" cy="10.823" rx="10.588" ry="10.823"/><ellipse cx="250.449" cy="10.823" rx="10.588" ry="10.823"/><use xlink:href="#C"/><use xlink:href="#C" y="7.384"/><use xlink:href="#C" y="14.759"/></g><path d="M359.075 136.023v27.16c0 1.35-2.36 2.48-5.54 2.79a.22.22 0 0 0-.08.01l-1.66.07a14.57 14.57 0 0 1-5.15-.84l-.45-.19-.43-.23c-.79-.47-1.25-1.02-1.25-1.61v-27.16z" fill="#ccc"/><circle cx="580.1" cy="457.786" r="12.372" fill="#3f3d56"/><use xlink:href="#D" fill="#fff"/><circle cx="648.1" cy="227.786" r="12.372" fill="#3f3d56"/><use xlink:href="#D" x="68" y="-230" fill="#fff"/><defs ><path id="B" d="M574.707 212.905c-.613-.002-1.216-.159-1.753-.457-1.169-.631-1.894-1.856-1.884-3.184v-30.014c0-1.326.722-2.546 1.884-3.184s2.579-.593 3.698.117l28.471 15.007c1.049.667 1.685 1.824 1.685 3.067s-.636 2.4-1.685 3.067l-28.471 15.007c-.58.373-1.255.572-1.945.574z"/><path id="C" d="M578.646 2.683h-25.981a1.97 1.97 0 0 0-1.929 1.967 1.97 1.97 0 0 0 1.929 1.967h25.981a1.97 1.97 0 0 0 1.929-1.967 1.97 1.97 0 0 0-1.929-1.967z"/><path id="D" d="M579.173 462.73a1.62 1.62 0 0 1-1.278-.625l-2.068-2.658a1.62 1.62 0 0 1 .284-2.272l.074-.058a1.62 1.62 0 0 1 2.272.284 1.18 1.18 0 0 0 1.788.087l4.198-4.432a1.62 1.62 0 0 1 2.289-.062l.069.066a1.62 1.62 0 0 1 .062 2.289l-6.515 6.877c-.305.323-.73.506-1.175.506z"/></defs></svg>